<svg width="20" height="20" viewBox="0 0 20 20" fill="none" xmlns="http://www.w3.org/2000/svg">
<path d="M1.51712 13.0068C0.996568 13.1913 0.719642 13.7656 0.9552 14.2652C1.58926 15.6098 2.51713 16.8001 3.6751 17.7457C5.09204 18.9027 6.79922 19.6489 8.61082 19.903C10.4224 20.1572 12.269 19.9095 13.9496 19.187C15.6302 18.4645 17.0805 17.2948 18.1424 15.8052C19.2044 14.3157 19.8374 12.5634 19.9726 10.7391C20.1079 8.91477 19.74 7.0883 18.9093 5.45849C18.0785 3.82869 16.8165 2.45801 15.2608 1.49564C13.9894 0.709158 12.5616 0.220003 11.0837 0.0588945C10.5347 -0.000958296 10.082 0.448067 10.0773 1.00033L10.006 9.29994C10.0024 9.72026 9.73632 10.0935 9.34013 10.2339L1.51712 13.0068Z" fill="#27C092"/>
</svg>
