<svg width="160" height="160" viewBox="0 0 160 160" fill="none" xmlns="http://www.w3.org/2000/svg">
<path d="M80 144.458C115.519 144.458 144.314 115.635 144.314 80.0801C144.314 44.525 115.519 15.7019 80 15.7019C44.4805 15.7019 15.6862 44.525 15.6862 80.0801C15.6862 115.635 44.4805 144.458 80 144.458Z" fill="#212121"/>
<path fill-rule="evenodd" clip-rule="evenodd" d="M125.106 79.546C125.106 78.8487 125.106 77.8202 124.997 77.1578C124.907 76.4954 124.708 76.199 124.255 75.8504C123.803 75.5018 123.097 75.0834 122.789 74.7696C122.482 74.4733 122.554 74.2815 122.355 72.6255C122.138 70.9869 121.649 67.884 121.378 66.3326C121.124 64.7811 121.106 64.7637 120.726 63.526C120.328 62.2884 119.568 59.8305 118.138 57.0762C116.69 54.322 114.573 51.2714 112.527 48.9704C105.234 40.7077 99.0982 37.4654 88.1484 37.9186C85.5784 38.0232 83.1894 38.3892 80.6556 38.9122C77.796 39.4875 74.3934 40.5159 70.9909 41.9976C67.6064 43.4794 64.041 45.4492 61.2176 47.5236C58.3942 49.598 56.2947 51.7769 54.5391 54.1477C52.7835 56.5359 51.3899 59.1158 50.485 60.9287C49.5801 62.759 49.1638 63.8398 48.9285 64.5371C48.7475 65.0426 48.657 65.339 48.4761 65.6004C49.7792 64.7114 51.8424 63.5783 54.3038 61.103C56.8196 58.5754 60.1316 53.9385 62.4845 51.2366C64.8554 48.5346 67.8598 45.6758 72.2035 43.2179C76.5291 40.76 83.0265 39.2434 86.0852 38.8599C89.1439 38.4938 89.5239 38.5461 90.8994 38.5636C94.7002 38.5287 97.5236 39.0168 100.962 40.5857C101.741 40.9517 102.066 40.9517 100.419 41.0563C98.7543 41.1609 95.4241 41.3875 92.474 41.5444C89.5239 41.7013 86.9358 41.8233 83.7143 42.9564C80.5108 44.0895 76.6558 46.251 73.5609 49.1273C70.4479 52.0036 68.0951 55.5945 67.0996 58.4708C66.0861 61.3471 66.43 63.5086 68.2761 65.7399C70.104 67.9886 73.4342 70.307 75.9137 72.2246C78.3751 74.1246 79.9859 75.6238 81.1623 76.8614C82.3388 78.1165 83.0808 79.1102 83.5152 81.1846C83.9495 83.2764 84.0581 86.449 84.1124 88.0353C84.1667 89.4124 84.1667 89.5867 82.6102 89.5344C82.2664 89.5519 81.7777 89.5344 81.108 89.4996C78.719 89.395 73.9229 89.1858 69.4344 88.5931C64.9459 88.0004 60.7651 87.0591 57.0729 85.9086C53.3808 84.7755 50.1954 83.4333 48.096 82.3699C45.9784 81.3066 44.983 80.5221 44.6753 78.8138L44.6572 78.7092C41.8157 80.7139 42.4854 81.8644 46.2861 84.0783C49.4896 85.9435 56.0775 87.983 62.4121 89.2555C68.7647 90.528 74.8821 91.0336 80.7461 90.8593C86.6282 90.7024 92.2569 89.8308 95.2793 89.3601C98.3018 88.872 98.7362 88.75 97.5779 89.2381C96.4196 89.7262 93.6505 90.807 86.5196 91.696C79.3887 92.5676 67.8598 93.2649 58.3218 92.8639C48.7656 92.463 41.1823 90.9638 37.472 89.761C36.9291 89.5867 36.4585 89.4298 36.0784 89.2555C36.1327 90.4409 36.8386 91.5914 38.5942 92.8116C40.404 94.0667 43.336 95.4264 46.5395 96.5943C49.743 97.7797 53.2179 98.7733 56.5481 99.4706C59.8782 100.15 63.0636 100.534 66.4662 100.586C69.8687 100.621 73.4885 100.325 76.2757 99.6624C79.0629 99 81.0176 97.9715 83.4609 96.6815C85.9042 95.3916 88.8362 93.8401 91.4243 92.8291C94.0305 91.8006 96.2929 91.3125 99.3335 90.4409C102.356 89.5867 106.157 88.3665 109.089 87.4949C112.039 86.6059 114.138 86.0481 116.31 85.3508C118.5 84.6361 120.762 83.7819 122.246 83.0149C123.731 82.2653 124.418 81.6029 124.762 81.0974C125.106 80.5919 125.106 80.2432 125.106 79.546Z" fill="#FF9800"/>
<path fill-rule="evenodd" clip-rule="evenodd" d="M125.799 73.7786C126.023 74.1596 125.896 74.6498 125.515 74.8737C123.416 76.1066 121.304 77.3472 117.22 79.2769C113.17 81.1991 107.115 83.8189 102.076 85.4334L102.073 85.4342C97.1216 87.002 93.1287 87.577 89.213 88.1407C89.1263 88.1532 89.0396 88.1657 88.9529 88.1782C88.5156 88.2412 88.11 87.9378 88.047 87.5005C87.984 87.0632 88.2874 86.6576 88.7247 86.5946C88.8035 86.5832 88.8822 86.5719 88.9609 86.5605C92.8816 85.9959 96.764 85.4369 101.589 83.9093C106.532 82.3255 112.514 79.7391 116.535 77.831L116.536 77.8304C120.557 75.9305 122.623 74.7168 124.701 73.4958L124.704 73.4942C125.085 73.2703 125.575 73.3977 125.799 73.7786Z" fill="#212121"/>
<path fill-rule="evenodd" clip-rule="evenodd" d="M89.7363 127.967C91.7399 126.372 93.5534 123.558 95.0215 118.344C96.4896 113.129 97.6123 105.494 98.3204 100.767C99.0459 96.0398 99.3567 94.2203 99.5295 93.2823C99.7195 92.3444 99.754 92.3069 100.704 92.0068C101.637 91.7066 103.502 91.1251 104.469 90.825C105.436 90.5249 105.506 90.4873 105.056 93.151C104.59 95.8147 103.606 101.198 102.5 106.226C101.395 111.253 100.169 115.942 98.0614 119.957C95.9715 123.971 93.0007 127.31 90.3926 128.905C87.7846 130.518 85.5565 130.386 85.5393 130.161C85.522 129.917 87.7328 129.542 89.7363 127.967Z" fill="white"/>
<path fill-rule="evenodd" clip-rule="evenodd" d="M78.4526 125.102C75.5192 124.181 73.7728 122.175 72.4333 118.393C71.0938 114.611 70.1612 109.054 69.2965 106.456C68.4148 103.874 67.5839 104.236 66.4818 104.269C65.3797 104.318 64.0063 104.039 63.2263 103.924C62.4463 103.825 62.2768 103.907 62.6498 104.565C63.0228 105.223 63.9554 106.489 65.0236 109.169C66.0918 111.849 67.2957 115.96 69.4321 119.396C71.5855 122.849 74.6715 125.644 78.1813 126.582C81.6911 127.519 85.6249 126.615 85.5401 126.236C85.4723 125.858 81.3859 126.023 78.4526 125.102Z" fill="white"/>
<path fill-rule="evenodd" clip-rule="evenodd" d="M119.815 20.343C107.702 12.2988 93.4165 8.1068 78.8452 8.34046C64.2741 8.57411 50.1319 13.2218 38.2865 21.6484C26.4432 30.0735 17.4612 41.8725 12.4983 55.4675C7.53604 69.0604 6.81632 83.8307 10.4301 97.8359C14.0443 111.843 21.8304 124.451 32.7892 133.982C34.505 135.474 34.7107 138.103 33.2486 139.854C31.7865 141.605 29.2104 141.815 27.4946 140.323C15.2819 129.702 6.57925 115.627 2.53598 99.9575C-1.50728 84.2879 -0.700882 67.7606 4.84867 52.5589C10.3982 37.3571 20.4298 24.1959 33.6185 14.8137C46.8071 5.43157 62.5323 0.269817 78.717 0.0102904C94.9017 -0.249236 110.784 4.40567 124.267 13.3601C137.75 22.3146 148.199 35.1474 154.233 50.1634C160.267 65.1795 161.604 81.6723 158.065 97.4635C154.527 113.255 146.28 127.601 134.414 138.608C132.746 140.156 130.165 140.03 128.648 138.328C127.132 136.625 127.255 133.991 128.923 132.443C139.568 122.569 146.945 109.72 150.107 95.6062C153.27 81.4939 152.077 66.7539 146.68 53.3247C141.283 39.8935 131.925 28.3859 119.815 20.343Z" fill="#FF9800"/>
<path d="M51.894 156.07H50.4604C50.1212 157.272 49.3659 158.166 48.1788 158.782C46.9918 159.399 45.4657 159.692 43.5695 159.692C43.1687 159.692 42.6291 159.645 41.92 159.568L42.2283 157.904C42.7216 157.997 43.1841 158.043 43.5849 158.043C45.1728 158.043 46.3906 157.889 47.2076 157.565C48.0401 157.257 48.5796 156.748 48.8263 156.055H48.1172C47.2385 156.055 46.4523 155.762 45.7431 155.192C45.0494 154.622 44.6949 153.82 44.6949 152.788C44.6949 151.863 44.9723 151.077 45.5427 150.461C46.1131 149.829 46.7606 149.521 47.5005 149.521C48.2713 149.521 48.965 149.968 49.5971 150.861C50.2291 151.755 50.5683 152.942 50.6145 154.421H51.8478V156.07H51.894ZM49.1809 154.421C49.1809 153.543 49.0113 152.788 48.6876 152.14C48.3638 151.493 47.9784 151.17 47.516 151.17C47.1614 151.17 46.8531 151.324 46.591 151.647C46.3135 151.971 46.1902 152.356 46.1902 152.803C46.1902 153.25 46.3752 153.635 46.7297 153.959C47.0843 154.267 47.5314 154.421 48.0555 154.421H49.1963H49.1809ZM61.3285 156.07H60.789C60.2186 156.07 59.602 155.885 58.9237 155.531C58.2454 155.176 57.5671 154.668 56.9042 154.005C56.7192 154.668 56.303 155.192 55.6863 155.531C55.0697 155.885 54.2989 156.055 53.3894 156.055H51.8632V154.406H53.3894C54.0523 154.406 54.5764 154.283 54.9618 154.036C55.3472 153.789 55.5476 153.466 55.5476 153.065C55.5476 152.618 55.3009 152.094 54.7922 151.478L53.2352 149.628C52.9269 149.259 52.7111 148.95 52.5878 148.673C52.449 148.396 52.3874 148.118 52.3874 147.825C52.3874 147.363 52.5723 146.978 52.9423 146.639C53.3123 146.3 53.8673 145.976 54.5918 145.668L59.3245 143.68V145.283L56.2413 146.531C55.2855 146.916 54.7151 147.163 54.4993 147.271C54.2835 147.379 54.1293 147.486 54.0214 147.579C53.9135 147.671 53.8673 147.779 53.8673 147.872C53.8673 148.118 54.0214 148.442 54.3297 148.827L56.3492 151.247C57.3821 152.464 58.23 153.312 58.8928 153.743C59.5557 154.19 60.1878 154.406 60.7427 154.406H61.3285V156.055V156.07ZM66.1691 156.07H61.3285V154.421H66.1691V156.07ZM70.9788 156.07H66.1383V154.421H70.9788V156.07ZM75.7886 156.07H70.948V154.421H75.7886V156.07ZM80.5983 156.07H75.7577V154.421H80.5983V156.07ZM85.408 156.07H80.5675V154.421H85.408V156.07ZM90.2178 156.07H85.3772V154.421H90.2178V156.07ZM102.119 152.51C102.119 153.666 101.872 154.545 101.394 155.146C100.916 155.762 100.223 156.055 99.3131 156.055H99.1744C98.2032 156.055 97.4786 155.793 97.0316 155.284C96.8312 155.515 96.5537 155.716 96.1529 155.854C95.7521 155.993 95.4437 156.07 95.1971 156.07C94.3646 156.07 93.7634 155.808 93.3626 155.3C92.9001 155.824 92.2218 156.07 91.3277 156.07H90.1561V154.421H91.2969C92.1448 154.421 92.5764 153.851 92.5764 152.695V151.154H94.0409V152.541C94.0409 153.204 94.118 153.682 94.2875 153.974C94.4571 154.267 94.75 154.421 95.1663 154.421C95.5671 154.421 95.86 154.267 96.045 153.99C96.2145 153.697 96.307 153.204 96.307 152.51V151.154H97.7715V152.464C97.7715 153.759 98.234 154.406 99.1744 154.406H99.3131C100.192 154.406 100.639 153.759 100.639 152.464V150.075H102.103V152.495L102.119 152.51ZM113.912 156.07H113.496C112.894 156.07 112.339 155.885 111.831 155.531C111.322 155.176 110.952 154.714 110.736 154.128C110.32 154.745 109.796 155.223 109.164 155.562C108.532 155.885 107.853 156.055 107.129 156.055C106.281 156.055 105.418 155.885 104.539 155.546L104.878 153.959C105.187 154.098 105.572 154.205 106.019 154.283C106.466 154.375 106.836 154.421 107.114 154.421C107.653 154.421 108.116 154.267 108.501 153.959L103.614 144.944L104.894 144.296L109.595 153.019C109.996 152.449 110.197 151.663 110.197 150.646V143.711H111.661V151.185C111.661 152.171 111.815 152.957 112.108 153.527C112.417 154.113 112.864 154.406 113.449 154.406H113.896V156.055L113.912 156.07ZM117.242 152.741C117.242 153.943 117.01 154.806 116.548 155.315C116.086 155.824 115.376 156.07 114.421 156.07H113.866V154.421H114.482C115.33 154.421 115.746 153.851 115.746 152.695V151.154H117.211V152.726L117.242 152.741ZM117.92 158.243H116.687V157.01H117.92V158.243ZM115.669 158.243H114.421V157.01H115.669V158.243ZM116.795 160H115.546V158.767H116.795V160Z" fill="#212121"/>
</svg>
