<svg width="40" height="40" viewBox="0 0 40 40" fill="none" xmlns="http://www.w3.org/2000/svg">
<g clip-path="url(#clip0)">
<path d="M20 22.7952C20.9694 21.3367 22.2792 20.1229 23.8162 19.2703L29.0909 21.5438L30.9091 26.9984L29.0909 32.4529C25.4132 32.4529 22.1472 32.4529 21.8182 32.4529L20 22.7952Z" fill="#FFBF2A"/>
<path d="M34.3655 19.2703C37.7225 21.1326 39.9999 24.7133 39.9999 28.8166V32.4529C39.5085 32.4529 33.9415 32.4529 29.0908 32.4529C29.0908 31.3069 29.0908 22.7078 29.0908 21.5438L34.3655 19.2703Z" fill="#FF9600"/>
<path d="M21.8182 14.2711C21.8182 10.2876 25.0542 6.99933 29.0909 7.00018L30.9091 14.2711L29.0909 21.542C25.049 21.5428 21.8182 18.2494 21.8182 14.2711Z" fill="#FFDBCA"/>
<path d="M36.3636 14.271C36.3636 18.2668 33.1164 21.5419 29.0908 21.5419C29.0908 19.9045 29.0908 8.60921 29.0908 7C33.1175 7.00012 36.3636 10.2756 36.3636 14.271Z" fill="#FDBDB1"/>
<path d="M5.63443 19.2703C2.27759 21.1326 1.52588e-05 24.7133 1.52588e-05 28.8166V32.4529H10.9091L12.7273 26.9984L10.9091 21.5438L5.63443 19.2703Z" fill="#FF668E"/>
<path d="M21.8184 28.8166C21.8184 24.7133 19.5408 21.1324 16.1839 19.2703L10.9091 21.5438V32.4529H21.8184V28.8166Z" fill="#E04496"/>
<path d="M3.63632 14.2711C3.63632 18.2667 6.88347 21.542 10.909 21.542L12.7272 14.2711L10.909 7.00018C6.88165 7.00018 3.63632 10.2767 3.63632 14.2711Z" fill="#FFDBCA"/>
<path d="M18.182 14.2711C18.182 10.2876 14.946 6.99921 10.9091 7.00018V21.5421C14.9511 21.5428 18.182 18.2495 18.182 14.2711Z" fill="#FDBDB1"/>
</g>
<defs>
<clipPath id="clip0">
<rect width="40" height="40" fill="white"/>
</clipPath>
</defs>
</svg>
