<svg width="40" height="40" viewBox="0 0 40 40" fill="none" xmlns="http://www.w3.org/2000/svg">
<g clip-path="url(#clip0)">
<path d="M35.3107 26.7118C34.2356 29.6256 32.6096 32.1592 30.4774 34.2414C28.0503 36.6114 24.8722 38.4946 21.0313 39.838C20.9052 39.8819 20.7737 39.918 20.6415 39.9445C20.467 39.979 20.2894 39.9976 20.1133 40H20.0788C19.8911 40 19.7025 39.9811 19.5154 39.9445C19.3833 39.918 19.2536 39.8819 19.1282 39.8389C15.2827 38.4977 12.1006 36.6153 9.67108 34.2453C7.5379 32.1631 5.91222 29.6311 4.83861 26.7173C2.8864 21.4194 2.99749 15.5832 3.0869 10.8933L3.08843 10.8213C3.10643 10.434 3.11803 10.0272 3.12444 9.57798C3.15709 7.37248 4.91063 5.54783 7.11645 5.42485C11.7155 5.16819 15.2732 3.66825 18.3131 0.705301L18.3396 0.680887C18.8444 0.217935 19.4804 -0.00911563 20.1133 0.000344856C20.7236 0.00827945 21.3315 0.235025 21.8183 0.680887L21.8442 0.705301C24.8847 3.66825 28.4425 5.16819 33.0415 5.42485C35.2473 5.54783 37.0008 7.37248 37.0335 9.57798C37.0399 10.0303 37.0515 10.4364 37.0695 10.8213L37.0704 10.8518C37.1595 15.5506 37.27 21.3984 35.3107 26.7118Z" fill="#BDBDBD"/>
<path d="M35.3107 26.7118C34.2355 29.6256 32.6096 32.1591 30.4773 34.2414C28.0502 36.6114 24.8721 38.4946 21.0312 39.838C20.9051 39.8819 20.7736 39.9179 20.6415 39.9445C20.4669 39.979 20.2893 39.9976 20.1132 40V0.000305176C20.7236 0.00823977 21.3315 0.234985 21.8182 0.680848L21.8442 0.705262C24.8846 3.66822 28.4424 5.16816 33.0414 5.42481C35.2472 5.5478 37.0007 7.37244 37.0334 9.57795C37.0398 10.0302 37.0514 10.4364 37.0694 10.8212L37.0703 10.8518C37.1594 15.5506 37.2699 21.3983 35.3107 26.7118Z" fill="#757575"/>
<path d="M30.047 20.0001C30.047 25.485 25.5936 29.9497 20.1132 29.9693H20.0781C14.5816 29.9693 10.1089 25.4969 10.1089 20.0001C10.1089 14.5035 14.5816 10.0312 20.0781 10.0312H20.1132C25.5936 10.0507 30.047 14.5154 30.047 20.0001Z" fill="white"/>
<path d="M30.047 20.0001C30.047 25.485 25.5936 29.9497 20.1132 29.9693V10.0312C25.5936 10.0507 30.047 14.5154 30.047 20.0001Z" fill="#757575" fill-opacity="0.1"/>
<path d="M24.6029 18.5645L20.1132 23.0548L19.143 24.025C18.9138 24.2542 18.6132 24.3686 18.313 24.3686C18.0124 24.3686 17.7121 24.2542 17.4826 24.025L15.3967 21.9382C14.9383 21.4798 14.9383 20.7373 15.3967 20.2786C15.8545 19.8203 16.5979 19.8203 17.0562 20.2786L18.313 21.5354L22.9434 16.9049C23.4018 16.4462 24.1452 16.4462 24.6029 16.9049C25.0613 17.3633 25.0613 18.1067 24.6029 18.5645Z" fill="#BDBDBD"/>
<path d="M24.6029 18.5645L20.1132 23.0548V19.7348L22.9434 16.9049C23.4018 16.4462 24.1452 16.4462 24.6029 16.9049C25.0613 17.3633 25.0613 18.1067 24.6029 18.5645Z" fill="#757575"/>
</g>
<defs>
<clipPath id="clip0">
<rect width="40" height="40" fill="white"/>
</clipPath>
</defs>
</svg>
