<svg width="40" height="40" viewBox="0 0 40 40" fill="none" xmlns="http://www.w3.org/2000/svg">
<g clip-path="url(#clip0)">
<path d="M17.1101 3.75711L0.443207 32.9424C-0.151793 33.9843 -0.147418 35.2259 0.454926 36.2635C1.05727 37.3012 2.13321 37.9207 3.33305 37.9207H20L21.277 22.2052L20 2.07953C18.7903 2.07953 17.71 2.70664 17.1101 3.75711Z" fill="#BDBDBD"/>
<path d="M39.5568 32.9425L22.8899 3.75711C22.29 2.70664 21.2097 2.07953 20 2.07953V37.9207H36.6671C37.8669 37.9207 38.9428 37.3012 39.5452 36.2635C40.1475 35.2259 40.1519 33.9843 39.5568 32.9425Z" fill="#757575"/>
<path d="M6.17453 32.9883H20L21.4154 25.8014L20 8.46082L6.17453 32.9883Z" fill="white"/>
<path d="M20 8.46082V32.9883H33.8255L20 8.46082Z" fill="#F2F1F4"/>
<path d="M18.6963 18.8109V24.9598H20L20.7202 22.0758L20 18.8109H18.6963Z" fill="#BDBDBD"/>
<path d="M18.6963 28.0335C18.728 28.7398 19.2691 29.3371 20 29.3371L20.6442 27.9983L20 26.7298C19.318 26.7298 18.6648 27.3294 18.6963 28.0335Z" fill="#BDBDBD"/>
<path d="M20 18.8109H21.3037V24.9598H20V18.8109Z" fill="#757575"/>
<path d="M21.3037 28.0334C21.272 27.3271 20.7309 26.7297 20 26.7297V29.3371C20.682 29.3371 21.3352 28.7374 21.3037 28.0334Z" fill="#757575"/>
</g>
<defs>
<clipPath id="clip0">
<rect width="40" height="40" fill="white"/>
</clipPath>
</defs>
</svg>
