<svg width="40" height="40" viewBox="0 0 40 40" fill="none" xmlns="http://www.w3.org/2000/svg">
<path d="M31.963 4.955C28.7677 1.75969 24.5187 0 19.9996 0C15.4812 0 11.2323 1.75969 8.03703 4.955C4.8418 8.15031 3.08203 12.3992 3.08203 16.9184C3.08203 26.0598 11.7259 33.6634 16.3693 37.7482C17.0144 38.3152 17.5721 38.8058 18.0158 39.2205C18.5719 39.7398 19.2858 39.9999 19.9997 39.9999C20.7136 39.9999 21.4274 39.7398 21.9844 39.2205C22.428 38.8057 22.9857 38.3152 23.6309 37.7482C28.2742 33.6633 36.9181 26.0598 36.9181 16.9184C36.918 12.3992 35.1583 8.15031 31.963 4.955ZM19.9996 23.7346C15.8889 23.7346 12.5445 20.3902 12.5445 16.2787C12.5445 12.168 15.8889 8.82352 19.9996 8.82352C24.1111 8.82352 27.4555 12.168 27.4555 16.2787C27.4555 20.3902 24.1111 23.7346 19.9996 23.7346Z" fill="#BDBDBD"/>
<path d="M36.918 16.9184C36.918 26.0598 28.2741 33.6634 23.6307 37.7482C22.9856 38.3152 22.4279 38.8058 21.9842 39.2205C21.4274 39.7398 20.7134 39.9999 19.9995 39.9999V23.7346C24.111 23.7346 27.4555 20.3902 27.4555 16.2787C27.4555 12.168 24.111 8.82352 19.9995 8.82352V0C24.5187 0 28.7677 1.75969 31.9629 4.955C35.1581 8.15031 36.918 12.3992 36.918 16.9184Z" fill="#757575"/>
</svg>
