<svg width="24" height="24" viewBox="0 0 24 24" fill="none" xmlns="http://www.w3.org/2000/svg">
<path d="M0 12C0 5.37258 5.37258 0 12 0C18.6274 0 24 5.37258 24 12C24 18.6274 18.6274 24 12 24C5.37258 24 0 18.6274 0 12Z" fill="#212121"/>
<path fill-rule="evenodd" clip-rule="evenodd" d="M19.8569 11.1914C19.8569 11.0672 19.8569 10.884 19.8376 10.766C19.8214 10.648 19.786 10.5952 19.7054 10.5331C19.6248 10.471 19.4991 10.3965 19.4443 10.3406C19.3895 10.2879 19.4024 10.2537 19.3669 9.95875C19.3282 9.66689 19.2412 9.11423 19.1928 8.8379C19.1477 8.56157 19.1445 8.55847 19.0768 8.33803C19.0059 8.11758 18.8705 7.6798 18.6158 7.18924C18.3579 6.69867 17.9808 6.15533 17.6165 5.74549C16.3174 4.2738 15.2246 3.6963 13.2743 3.77703C12.8166 3.79565 12.391 3.86086 11.9397 3.954C11.4304 4.05646 10.8244 4.23965 10.2183 4.50356C9.61552 4.76747 8.98047 5.11831 8.47758 5.48779C7.9747 5.85726 7.60076 6.24537 7.28807 6.66763C6.97539 7.09299 6.72717 7.5525 6.56599 7.87541C6.40481 8.20141 6.33067 8.39391 6.28876 8.51811C6.25652 8.60815 6.2404 8.66093 6.20817 8.7075C6.44027 8.54915 6.80776 8.34734 7.24617 7.90645C7.69425 7.45625 8.28417 6.63037 8.70324 6.14912C9.12553 5.66787 9.66065 5.15868 10.4343 4.72089C11.2048 4.28311 12.362 4.01299 12.9068 3.94469C13.4516 3.87948 13.5193 3.8888 13.7643 3.8919C14.4412 3.88569 14.9441 3.97263 15.5566 4.25206C15.6952 4.31727 15.7533 4.31727 15.4599 4.3359C15.1633 4.35452 14.5702 4.39489 14.0447 4.42283C13.5193 4.45077 13.0583 4.47251 12.4845 4.67432C11.9139 4.87614 11.2273 5.26114 10.6761 5.77343C10.1216 6.28573 9.70255 6.92533 9.52526 7.43762C9.34473 7.94992 9.40598 8.33492 9.73479 8.73234C10.0604 9.13286 10.6535 9.54581 11.0952 9.88734C11.5336 10.2258 11.8205 10.4928 12.03 10.7132C12.2395 10.9368 12.3717 11.1137 12.4491 11.4832C12.5264 11.8558 12.5458 12.4209 12.5554 12.7034C12.5651 12.9487 12.5651 12.9798 12.2879 12.9704C12.2266 12.9735 12.1396 12.9704 12.0203 12.9642C11.5948 12.9456 10.7406 12.9083 9.9411 12.8028C9.14165 12.6972 8.39699 12.5296 7.73938 12.3246C7.08176 12.1228 6.51441 11.8837 6.14047 11.6944C5.76331 11.505 5.58601 11.3652 5.53121 11.061L5.52799 11.0423C5.02188 11.3994 5.14116 11.6043 5.81811 11.9986C6.38869 12.3308 7.56208 12.6941 8.69034 12.9208C9.82183 13.1474 10.9114 13.2375 11.9559 13.2064C13.0035 13.1785 14.0061 13.0232 14.5444 12.9394C15.0827 12.8525 15.1601 12.8307 14.9538 12.9177C14.7475 13.0046 14.2543 13.1971 12.9842 13.3554C11.7141 13.5107 9.66065 13.6349 7.96181 13.5635C6.25975 13.4921 4.90906 13.225 4.24822 13.0108C4.15151 12.9798 4.0677 12.9518 4 12.9208C4.00967 13.1319 4.13539 13.3368 4.44808 13.5541C4.77044 13.7777 5.29266 14.0199 5.86324 14.2279C6.43382 14.439 7.05275 14.616 7.6459 14.7402C8.23904 14.8613 8.80639 14.9296 9.41243 14.9389C10.0185 14.9451 10.6632 14.8923 11.1596 14.7743C11.6561 14.6564 12.0042 14.4732 12.4394 14.2434C12.8746 14.0137 13.3968 13.7373 13.8578 13.5573C14.322 13.3741 14.7249 13.2871 15.2665 13.1319C15.8048 12.9798 16.4818 12.7624 17.004 12.6072C17.5295 12.4488 17.9034 12.3495 18.2902 12.2253C18.6803 12.098 19.0832 11.9458 19.3476 11.8092C19.6119 11.6757 19.7344 11.5577 19.7957 11.4677C19.8569 11.3777 19.8569 11.3156 19.8569 11.1914Z" fill="#FF9800"/>
<path fill-rule="evenodd" clip-rule="evenodd" d="M19.9803 10.1641C20.0202 10.232 19.9975 10.3193 19.9297 10.3592C19.5559 10.5788 19.1798 10.7997 18.4524 11.1434C17.7309 11.4858 16.6526 11.9524 15.7549 12.24L15.7545 12.2401C14.8725 12.5194 14.1613 12.6218 13.4639 12.7222C13.4485 12.7244 13.433 12.7267 13.4176 12.7289C13.3397 12.7401 13.2675 12.6861 13.2562 12.6082C13.245 12.5303 13.2991 12.458 13.3769 12.4468C13.391 12.4448 13.405 12.4428 13.419 12.4408C14.1173 12.3402 14.8088 12.2406 15.6682 11.9685C16.5487 11.6864 17.6142 11.2258 18.3303 10.8859L18.3305 10.8858C19.0468 10.5474 19.4147 10.3312 19.7848 10.1138L19.7853 10.1135C19.8532 10.0736 19.9405 10.0963 19.9803 10.1641Z" fill="#212121"/>
<path fill-rule="evenodd" clip-rule="evenodd" d="M13.5571 19.8156C13.914 19.5317 14.237 19.0305 14.4985 18.1017C14.76 17.1729 14.9599 15.813 15.086 14.9711C15.2152 14.1291 15.2706 13.805 15.3014 13.638C15.3352 13.4709 15.3414 13.4642 15.5106 13.4108C15.6767 13.3573 16.0089 13.2538 16.1812 13.2003C16.3535 13.1468 16.3658 13.1402 16.2858 13.6146C16.2028 14.089 16.0274 15.0479 15.8305 15.9433C15.6336 16.8387 15.4152 17.674 15.0399 18.389C14.6677 19.104 14.1385 19.6987 13.674 19.9827C13.2095 20.27 12.8126 20.2467 12.8096 20.2066C12.8065 20.1631 13.2003 20.0963 13.5571 19.8156Z" fill="white"/>
<path fill-rule="evenodd" clip-rule="evenodd" d="M11.5474 19.3054C11.0249 19.1414 10.7139 18.7841 10.4753 18.1105C10.2367 17.437 10.0706 16.4471 9.91657 15.9843C9.75953 15.5245 9.61155 15.589 9.41525 15.5948C9.21895 15.6036 8.97433 15.5538 8.83541 15.5333C8.69649 15.5158 8.66629 15.5304 8.73273 15.6475C8.79917 15.7647 8.96527 15.9902 9.15553 16.4676C9.34579 16.9449 9.56021 17.6771 9.94073 18.2892C10.3243 18.9042 10.8739 19.4021 11.4991 19.569C12.1242 19.7359 12.8248 19.5749 12.8097 19.5075C12.7977 19.4402 12.0698 19.4694 11.5474 19.3054Z" fill="white"/>
<path d="M12 22C6.47715 22 2 17.5228 2 12H-2C-2 19.732 4.26801 26 12 26V22ZM22 12C22 17.5228 17.5228 22 12 22V26C19.732 26 26 19.732 26 12H22ZM12 2C17.5228 2 22 6.47715 22 12H26C26 4.26801 19.732 -2 12 -2V2ZM12 -2C4.26801 -2 -2 4.26801 -2 12H2C2 6.47715 6.47715 2 12 2V-2Z" fill="#FF9800"/>
</svg>
