<svg width="24" height="24" viewBox="0 0 24 24" fill="none" xmlns="http://www.w3.org/2000/svg">
<path d="M0 12C0 5.37258 5.37258 0 12 0C18.6274 0 24 5.37258 24 12C24 18.6274 18.6274 24 12 24C5.37258 24 0 18.6274 0 12Z" fill="white"/>
<path d="M3.51712 15.0068C2.99657 15.1913 2.71964 15.7656 2.9552 16.2652C3.58926 17.6098 4.51713 18.8001 5.6751 19.7457C7.09204 20.9027 8.79922 21.6489 10.6108 21.903C12.4224 22.1572 14.269 21.9095 15.9496 21.187C17.6302 20.4645 19.0805 19.2948 20.1424 17.8052C21.2044 16.3157 21.8374 14.5634 21.9726 12.7391C22.1079 10.9148 21.74 9.0883 20.9093 7.45849C20.0785 5.82869 18.8165 4.45801 17.2608 3.49564C15.9894 2.70916 14.5616 2.22 13.0837 2.05889C12.5347 1.99904 12.082 2.44807 12.0773 3.00033L12.006 11.2999C12.0024 11.7203 11.7363 12.0935 11.3401 12.2339L3.51712 15.0068Z" fill="#27C092"/>
</svg>
