<svg width="40" height="40" viewBox="0 0 40 40" fill="none" xmlns="http://www.w3.org/2000/svg">
<path d="M21.1646 21.9746V16.8598H18.8208V21.9625L14.4763 26.3071L16.1336 27.9643L19.9882 24.11L23.8691 27.9675L25.5214 26.3052L21.1646 21.9746Z" fill="#BDBDBD"/>
<path d="M21.1646 21.9746V16.8598H19.9846L19.9882 24.11L23.8692 27.9675L25.5214 26.3052L21.1646 21.9746Z" fill="#757575"/>
<path d="M14.815 39.9735H0V38.8017C0 35.3279 2.82609 32.5018 6.29984 32.5018H8.51523C11.989 32.5018 14.8151 35.3279 14.8151 38.8017L14.815 39.9735Z" fill="#BDBDBD"/>
<path d="M8.51523 32.5018H7.42188V39.9735H14.815V38.8017C14.815 35.3279 11.9889 32.5018 8.51523 32.5018Z" fill="#757575"/>
<path d="M39.9999 39.9735H25.1849V38.8017C25.1849 35.3279 28.011 32.5018 31.4847 32.5018H33.7C37.1738 32.5018 39.9999 35.3279 39.9999 38.8017V39.9735Z" fill="#BDBDBD"/>
<path d="M33.7 32.5018H32.584V39.9735H39.9999V38.8017C39.9999 35.3279 37.1738 32.5018 33.7 32.5018Z" fill="#757575"/>
<path d="M27.4074 14.1599H12.5924V12.988C12.5924 9.51433 15.4185 6.68823 18.8923 6.68823H21.1077C24.5814 6.68823 27.4075 9.51433 27.4075 12.988V14.1599H27.4074Z" fill="#BDBDBD"/>
<path d="M21.1078 6.68823H19.9988V14.1599H27.4077V12.988C27.4076 9.51433 24.5816 6.68823 21.1078 6.68823Z" fill="#757575"/>
<path d="M7.39965 34.8456C4.91684 34.8456 2.89691 32.8258 2.89691 30.3429C2.89691 27.86 4.91684 25.8401 7.39965 25.8401C9.88246 25.8401 11.9024 27.86 11.9024 30.3429C11.9024 32.8258 9.88246 34.8456 7.39965 34.8456Z" fill="#F2F1F4"/>
<path d="M7.42188 25.8407V34.845C9.89445 34.833 11.9024 32.8182 11.9024 30.3428C11.9024 27.8674 9.89445 25.8527 7.42188 25.8407Z" fill="#BDBDBD"/>
<path d="M32.5845 34.8456C30.1017 34.8456 28.0818 32.8258 28.0818 30.3429C28.0818 27.86 30.1016 25.8401 32.5845 25.8401C35.0674 25.8401 37.0872 27.86 37.0872 30.3429C37.0872 32.8258 35.0673 34.8456 32.5845 34.8456Z" fill="#F2F1F4"/>
<path d="M32.5847 25.8402C32.5825 25.8402 32.5825 34.8457 32.5847 34.8457C35.0675 34.8457 37.0874 32.8258 37.0874 30.3429C37.0874 27.8601 35.0675 25.8402 32.5847 25.8402Z" fill="#BDBDBD"/>
<path d="M19.9921 9.03176C17.5092 9.03176 15.4893 7.01191 15.4893 4.52902C15.4893 2.04613 17.5092 0.0263672 19.9921 0.0263672C22.4749 0.0263672 24.4947 2.04621 24.4947 4.5291C24.4947 7.01199 22.4749 9.03176 19.9921 9.03176Z" fill="#F2F1F4"/>
<path d="M19.9923 0.0263672V9.03184C22.4751 9.03184 24.4949 7.01199 24.4949 4.5291C24.4949 2.04621 22.4751 0.0263672 19.9923 0.0263672Z" fill="#BDBDBD"/>
</svg>
