<svg width="57" height="56" viewBox="0 0 57 56" fill="none" xmlns="http://www.w3.org/2000/svg">
<circle cx="28.5" cy="28" r="28" fill="#F2F1F4"/>
<path d="M28.5 0C13.044 0 0.5 12.544 0.5 28C0.5 43.456 13.044 56 28.5 56C43.956 56 56.5 43.456 56.5 28C56.5 12.544 43.956 0 28.5 0ZM28.5 8.4C33.148 8.4 36.9 12.152 36.9 16.8C36.9 21.448 33.148 25.2 28.5 25.2C23.852 25.2 20.1 21.448 20.1 16.8C20.1 12.152 23.852 8.4 28.5 8.4ZM28.5 48.16C21.5 48.16 15.312 44.576 11.7 39.144C11.784 33.572 22.9 30.52 28.5 30.52C34.072 30.52 45.216 33.572 45.3 39.144C41.688 44.576 35.5 48.16 28.5 48.16Z" fill="#242423" fill-opacity="0.1"/>
<circle opacity="0.5" cx="28.5" cy="28" r="28" fill="#212121"/>
<g clip-path="url(#clip0)">
<path d="M39.5 35C39.5 35.5304 39.2893 36.0391 38.9142 36.4142C38.5391 36.7893 38.0304 37 37.5 37H19.5C18.9696 37 18.4609 36.7893 18.0858 36.4142C17.7107 36.0391 17.5 35.5304 17.5 35V24C17.5 23.4696 17.7107 22.9609 18.0858 22.5858C18.4609 22.2107 18.9696 22 19.5 22H23.5L25.5 19H31.5L33.5 22H37.5C38.0304 22 38.5391 22.2107 38.9142 22.5858C39.2893 22.9609 39.5 23.4696 39.5 24V35Z" stroke="white" stroke-width="2" stroke-linecap="round" stroke-linejoin="round"/>
<path d="M28.5 33C30.7091 33 32.5 31.2091 32.5 29C32.5 26.7909 30.7091 25 28.5 25C26.2909 25 24.5 26.7909 24.5 29C24.5 31.2091 26.2909 33 28.5 33Z" stroke="white" stroke-width="2" stroke-linecap="round" stroke-linejoin="round"/>
</g>
<defs>
<clipPath id="clip0">
<rect width="24" height="24" fill="white" transform="translate(16.5 16)"/>
</clipPath>
</defs>
</svg>
